<svg width="25" height="41" viewBox="0 0 25 41" fill="none" xmlns="http://www.w3.org/2000/svg">
<path d="M24.192 4.14285C24.192 3.78125 24.0313 3.45982 23.7902 3.21875L21.7812 1.20982C21.5402 0.96875 21.1786 0.808032 20.8571 0.808032C20.5357 0.808032 20.1741 0.96875 19.933 1.20982L1.20982 19.933C0.96875 20.1741 0.808036 20.5357 0.808036 20.8571C0.808036 21.1786 0.96875 21.5402 1.20982 21.7812L19.933 40.5045C20.1741 40.7455 20.5357 40.9062 20.8571 40.9062C21.1786 40.9062 21.5402 40.7455 21.7812 40.5045L23.7902 38.4955C24.0313 38.2545 24.192 37.8929 24.192 37.5714C24.192 37.25 24.0313 36.8884 23.7902 36.6473L8 20.8571L23.7902 5.06696C24.0313 4.82589 24.192 4.46428 24.192 4.14285Z" fill="black"/>
</svg>
