<svg width="24" height="41" viewBox="0 0 24 41" fill="none" xmlns="http://www.w3.org/2000/svg">
<path d="M23.9062 20.8571C23.9062 20.5357 23.7455 20.1741 23.5045 19.933L4.78125 1.20982C4.54018 0.96875 4.17857 0.808032 3.85714 0.808032C3.53571 0.808032 3.17411 0.96875 2.93304 1.20982L0.924107 3.21875C0.683036 3.45982 0.522321 3.82143 0.522321 4.14285C0.522321 4.46428 0.683036 4.82589 0.924107 5.06696L16.7143 20.8571L0.924107 36.6473C0.683036 36.8884 0.522321 37.25 0.522321 37.5714C0.522321 37.933 0.683036 38.2545 0.924107 38.4955L2.93304 40.5045C3.17411 40.7455 3.53571 40.9062 3.85714 40.9062C4.17857 40.9062 4.54018 40.7455 4.78125 40.5045L23.5045 21.7812C23.7455 21.5402 23.9062 21.1786 23.9062 20.8571Z" fill="black"/>
</svg>
