<svg width="26" height="26" viewBox="0 0 26 26" fill="none" xmlns="http://www.w3.org/2000/svg">
<path d="M25.4922 0H0.507812C0.227398 0 0 0.227348 0 0.507812V19.1953C0 19.4758 0.227398 19.7031 0.507812 19.7031H2.97685C3.25726 19.7031 3.48466 19.4758 3.48466 19.1953C3.48466 18.9148 3.25726 18.6875 2.97685 18.6875H1.01562V16.0554H24.9844V18.6875H6.74878C6.46836 18.6875 6.24096 18.9148 6.24096 19.1953C6.24096 19.4758 6.46836 19.7031 6.74878 19.7031H10.0039V22.95H7.85418C7.57377 22.95 7.34637 23.1773 7.34637 23.4578V25.4922C7.34637 25.7727 7.57377 26 7.85418 26H18.1458C18.4262 26 18.6536 25.7727 18.6536 25.4922V23.4577C18.6536 23.1773 18.4262 22.9499 18.1458 22.9499H15.8945V19.7031H25.4922C25.7726 19.7031 26 19.4758 26 19.1953V0.507812C26 0.227348 25.7726 0 25.4922 0ZM11.0195 19.7031H14.8789V22.95H11.0195V19.7031ZM17.638 23.9656V24.9844H8.362V23.9656H17.638ZM24.9844 15.0397H1.01562V1.01562H24.9844V15.0397Z" fill="white"/>
<path d="M5.22188 18.8363C5.12742 18.7418 4.99641 18.6875 4.86285 18.6875C4.7293 18.6875 4.59828 18.7418 4.50383 18.8363C4.40943 18.9307 4.35504 19.0618 4.35504 19.1953C4.35504 19.3289 4.40938 19.4599 4.50383 19.5543C4.59828 19.6488 4.7293 19.7031 4.86285 19.7031C4.99641 19.7031 5.12742 19.6488 5.22188 19.5543C5.31628 19.4599 5.37067 19.3289 5.37067 19.1953C5.37067 19.0618 5.31633 18.9307 5.22188 18.8363Z" fill="white"/>
<path d="M13.359 17.0158C13.2646 16.9213 13.1336 16.867 13 16.867C12.8664 16.867 12.7354 16.9213 12.641 17.0158C12.5465 17.1102 12.4922 17.2413 12.4922 17.3748C12.4922 17.5089 12.5465 17.6394 12.641 17.7343C12.7354 17.8288 12.8664 17.8831 13 17.8831C13.1336 17.8831 13.2646 17.8288 13.359 17.7343C13.4534 17.6394 13.5078 17.5089 13.5078 17.3748C13.5078 17.2413 13.4535 17.1102 13.359 17.0158Z" fill="white"/>
<path d="M7.41406 4.26874C7.13365 4.26874 6.90625 4.49609 6.90625 4.77655V5.41345C6.90625 5.69386 7.13365 5.92126 7.41406 5.92126C7.69448 5.92126 7.92188 5.69391 7.92188 5.41345V4.77655C7.92188 4.49609 7.69448 4.26874 7.41406 4.26874Z" fill="white"/>
<path d="M12.543 4.77337L7.66797 1.95877C7.51085 1.86807 7.31727 1.86807 7.16016 1.95877L2.28516 4.77337C2.12804 4.86406 2.03125 5.03169 2.03125 5.21313V10.8423C2.03125 11.0237 2.12804 11.1913 2.28516 11.282L7.16016 14.0966C7.23871 14.142 7.32636 14.1647 7.41406 14.1647C7.50176 14.1647 7.58941 14.142 7.66797 14.0966L12.543 11.282C12.7001 11.1913 12.7969 11.0237 12.7969 10.8423V5.21313C12.7969 5.03169 12.7001 4.86406 12.543 4.77337ZM6.90625 12.7773L3.55174 10.8406C3.75923 10.6897 3.82352 10.4035 3.69241 10.1764C3.56134 9.94929 3.28128 9.86184 3.04688 9.9661V6.09302L6.39625 8.02895L6.21913 8.13122C5.97624 8.27143 5.89301 8.58201 6.03327 8.82489C6.12732 8.9878 6.29799 9.07885 6.47354 9.07885C6.55967 9.07885 6.64696 9.05691 6.72694 9.01075L6.90625 8.90721V12.7773ZM7.41406 6.4465C7.13365 6.4465 6.90625 6.67385 6.90625 6.95432V7.15069L3.55433 5.21328L6.90833 3.27684C6.9293 3.53806 7.14751 3.74357 7.41406 3.74357C7.68061 3.74357 7.89882 3.53806 7.91979 3.2769L11.2738 5.21333L7.92188 7.15069V6.95432C7.92188 6.67385 7.69448 6.4465 7.41406 6.4465ZM11.7812 9.9661C11.5468 9.8619 11.2668 9.94929 11.1357 10.1764C11.0046 10.4035 11.0689 10.6897 11.2764 10.8406L7.92188 12.7773V8.90726L8.10118 9.0108C8.18116 9.05701 8.26846 9.0789 8.35458 9.0789C8.53008 9.0789 8.70081 8.98785 8.79486 8.82494C8.93511 8.58206 8.85188 8.27148 8.609 8.13127L8.43187 8.029L11.7812 6.09302V9.9661Z" fill="white"/>
<path d="M10.495 9.22001L9.94345 8.90156C9.70051 8.7613 9.39003 8.84458 9.24978 9.08742C9.10952 9.3303 9.19275 9.64088 9.43564 9.78109L9.98717 10.0995C10.0672 10.1457 10.1544 10.1676 10.2406 10.1676C10.4161 10.1676 10.5867 10.0766 10.6808 9.91368C10.8211 9.67084 10.7379 9.36027 10.495 9.22001Z" fill="white"/>
<path d="M5.57837 9.08752C5.43816 8.84468 5.12758 8.76145 4.88469 8.90166L4.33316 9.22011C4.09027 9.36032 4.00704 9.67089 4.1473 9.91378C4.24135 10.0767 4.41202 10.1677 4.58757 10.1677C4.6737 10.1677 4.76104 10.1458 4.84097 10.0996L5.39251 9.78119C5.63539 9.64098 5.71863 9.3304 5.57837 9.08752Z" fill="white"/>
<path d="M15.7422 3.70703C15.4618 3.70703 15.2344 3.93438 15.2344 4.21484V13.974C15.2344 14.2545 15.4618 14.4818 15.7422 14.4818C16.0226 14.4818 16.25 14.2545 16.25 13.974V4.21484C16.25 3.93438 16.0226 3.70703 15.7422 3.70703Z" fill="white"/>
<path d="M16.1012 2.09274C16.0068 1.99829 15.8757 1.94446 15.7422 1.94446C15.6086 1.94446 15.4776 1.99829 15.3832 2.09274C15.2887 2.18719 15.2344 2.31821 15.2344 2.45227C15.2344 2.58583 15.2887 2.71684 15.3832 2.81129C15.4777 2.90575 15.6086 2.96008 15.7422 2.96008C15.8757 2.96008 16.0068 2.90575 16.1012 2.81129C16.1956 2.71684 16.25 2.58583 16.25 2.45227C16.25 2.31821 16.1957 2.1877 16.1012 2.09274Z" fill="white"/>
<path d="M22.9962 9.9333L20.8634 8.75157C20.7102 8.66671 20.5242 8.66671 20.3711 8.75157L18.2383 9.9333C18.0768 10.0228 17.9767 10.1928 17.9767 10.3775V12.7409C17.9767 12.9255 18.0769 13.0956 18.2383 13.1851L20.3711 14.3668C20.4477 14.4092 20.5325 14.4304 20.6173 14.4304C20.702 14.4304 20.7868 14.4092 20.8634 14.3668L22.9962 13.1851C23.1577 13.0956 23.2579 12.9255 23.2579 12.7409V10.3775C23.2579 10.1928 23.1576 10.0228 22.9962 9.9333ZM18.9922 10.6766L20.1094 10.0577V11.26L18.9922 11.8789V10.6766ZM20.6172 13.342L19.5322 12.7408L20.6172 12.1397L21.7022 12.7408L20.6172 13.342ZM22.2422 11.8789L21.125 11.26V10.0577L22.2422 10.6766V11.8789Z" fill="white"/>
<path d="M22.9962 3.58155L20.8634 2.39982C20.7102 2.31497 20.5242 2.31497 20.3711 2.39982L18.2383 3.58155C18.0768 3.67103 17.9767 3.8411 17.9767 4.02574V6.38915C17.9767 6.57379 18.0769 6.74385 18.2383 6.83333L20.3711 8.01501C20.4477 8.05741 20.5325 8.07864 20.6173 8.07864C20.702 8.07864 20.7868 8.05746 20.8634 8.01501L22.9962 6.83333C23.1577 6.74385 23.2579 6.57379 23.2579 6.38915V4.02574C23.2579 3.8411 23.1576 3.67103 22.9962 3.58155ZM20.1094 6.70892L18.9922 6.08994V4.88765L20.1094 5.50662V6.70892ZM20.6172 4.62689L19.5322 4.02574L20.6172 3.42459L21.7022 4.02574L20.6172 4.62689ZM22.2422 6.08994L21.125 6.70892V5.50662L22.2422 4.88765V6.08994Z" fill="white"/>
</svg>
