<svg width="7" height="15" viewBox="0 0 7 15" fill="none" xmlns="http://www.w3.org/2000/svg">
<path d="M6.59019 13.0714C6.59019 12.7199 6.2989 12.4286 5.94734 12.4286H5.30448V6.64286C5.30448 6.29129 5.01318 6 4.66162 6H0.804478C0.452916 6 0.161621 6.29129 0.161621 6.64286V7.92857C0.161621 8.28013 0.452916 8.57143 0.804478 8.57143H1.44734V12.4286H0.804478C0.452916 12.4286 0.161621 12.7199 0.161621 13.0714V14.3571C0.161621 14.7087 0.452916 15 0.804478 15H5.94734C6.2989 15 6.59019 14.7087 6.59019 14.3571V13.0714ZM5.30448 1.5C5.30448 1.14844 5.01318 0.857142 4.66162 0.857142H2.09019C1.73863 0.857142 1.44734 1.14844 1.44734 1.5V3.42857C1.44734 3.78013 1.73863 4.07143 2.09019 4.07143H4.66162C5.01318 4.07143 5.30448 3.78013 5.30448 3.42857V1.5Z" fill="white"/>
</svg>
