<svg width="44" height="49" viewBox="0 0 44 49" fill="none" xmlns="http://www.w3.org/2000/svg">
<g clip-path="url(#clip0)">
<path d="M22.072 49C21.0959 48.9862 20.1403 48.7184 19.3002 48.2231L2.69975 38.6622C1.8793 38.1904 1.19789 37.5119 0.724007 36.6948C0.250123 35.8777 0.000445186 34.9508 0 34.0072V14.8852C0.000445186 13.9416 0.250123 13.0147 0.724007 12.1976C1.19789 11.3806 1.8793 10.702 2.69975 10.2302L19.3002 0.669253C20.121 0.197231 21.0521 -0.0512695 22 -0.0512695C22.9478 -0.0512695 23.8789 0.197231 24.6997 0.669253L41.3003 10.2302C42.1208 10.702 42.802 11.3806 43.2759 12.1976C43.7498 13.0147 43.9996 13.9416 44.0001 14.8852V34.0072C43.9996 34.9508 43.7498 35.8777 43.2759 36.6948C42.802 37.5119 42.1208 38.1904 41.3003 38.6622L28.5753 45.9823C28.4313 46.0655 28.26 46.0883 28.0992 46.0457C27.9383 46.0032 27.801 45.8987 27.7175 45.7552C27.6339 45.6118 27.611 45.4412 27.6537 45.2809C27.6965 45.1207 27.8015 44.9839 27.9455 44.9007L40.6763 37.5806C41.3077 37.2168 41.8318 36.6941 42.1961 36.0647C42.5605 35.4354 42.7523 34.7217 42.7521 33.9952V14.8733C42.7481 14.1477 42.5545 13.4356 42.1906 12.807C41.8266 12.1784 41.3048 11.6549 40.6763 11.2879L24.0757 1.72693C23.4431 1.36862 22.7278 1.18022 22 1.18022C21.2721 1.18022 20.5569 1.36862 19.9242 1.72693L3.32372 11.2879C2.69521 11.6549 2.1733 12.1784 1.80936 12.807C1.44542 13.4356 1.25199 14.1477 1.24793 14.8733V33.9952C1.24779 34.7217 1.43943 35.4354 1.80379 36.0647C2.16815 36.6941 2.69238 37.2168 3.32372 37.5806L19.9242 47.1416C20.4985 47.517 21.1652 47.7283 21.8517 47.7525C22.5382 47.7767 23.2182 47.613 23.8178 47.279C24.1059 47.0948 24.3541 46.855 24.5478 46.5738C24.7415 46.2926 24.8769 45.9757 24.9458 45.6417C25.0934 45.111 25.3463 44.6152 25.6897 44.1836C26.1877 43.5861 35.1808 38.5427 39.0265 36.4153C39.5901 36.087 40.0578 35.6176 40.383 35.0536C40.7082 34.4897 40.8795 33.8508 40.8802 33.2005V15.7577C40.8794 15.1058 40.7073 14.4656 40.3811 13.9005C40.0548 13.3355 39.5857 12.8653 39.0205 12.5368L23.8659 3.82437C23.2984 3.49874 22.6549 3.32734 22 3.32734C21.345 3.32734 20.7017 3.49874 20.1342 3.82437L4.98558 12.5368C4.41882 12.8641 3.94818 13.3338 3.62077 13.899C3.29335 14.4642 3.12055 15.1051 3.11969 15.7577V33.1825C3.12039 33.8343 3.29313 34.4744 3.62062 35.0387C3.94811 35.603 4.41889 36.0715 4.98558 36.3974L20.1102 45.0979C20.9561 45.4923 21.574 45.6955 22.2879 45.4385C22.5039 45.3549 22.852 44.8888 23.152 44.0462C23.5419 42.9228 26.0197 41.4169 26.7516 40.9807L37.1007 35.035C37.5943 34.749 38.0041 34.3393 38.2893 33.8465C38.5745 33.3538 38.7253 32.7952 38.7265 32.2264V16.6899C38.7253 16.1211 38.5745 15.5625 38.2893 15.0698C38.0041 14.577 37.5943 14.1673 37.1007 13.8813L23.6079 6.11303C23.1138 5.82819 22.5529 5.67819 21.9819 5.67819C21.411 5.67819 20.8502 5.82819 20.3561 6.11303L6.86334 13.8813C6.3697 14.1673 5.95983 14.577 5.67458 15.0698C5.38933 15.5625 5.23868 16.1211 5.23751 16.6899V32.2264C5.23868 32.7952 5.38933 33.3538 5.67458 33.8465C5.95983 34.3393 6.3697 34.749 6.86334 35.035L18.9103 41.9607L18.9702 41.9966C19.5147 42.3877 20.1881 42.5585 20.8541 42.4746C21.3161 42.3551 21.676 40.5744 21.604 38.8116C21.5974 38.7292 21.6079 38.6463 21.6351 38.5682C21.6623 38.4901 21.7054 38.4184 21.7618 38.3578C21.8182 38.2971 21.8866 38.2488 21.9628 38.2158C22.0389 38.1828 22.121 38.1659 22.204 38.1662C22.2867 38.1596 22.3699 38.1701 22.4483 38.1972C22.5267 38.2243 22.5986 38.2672 22.6595 38.3234C22.7204 38.3795 22.7691 38.4477 22.8022 38.5235C22.8353 38.5993 22.8522 38.6811 22.852 38.7638C22.8727 39.4723 22.8405 40.1813 22.7559 40.8851C22.5459 42.5463 22.024 43.4666 21.1661 43.6877C20.6626 43.7776 20.146 43.7657 19.6472 43.6528C19.1484 43.5399 18.6774 43.3282 18.2623 43.0303L6.2634 36.1166C5.58058 35.7211 5.01367 35.1545 4.61897 34.4731C4.22426 33.7916 4.01551 33.0191 4.0136 32.2324V16.6958C4.01431 15.9089 4.22253 15.1359 4.61735 14.4543C5.01218 13.7726 5.57977 13.2062 6.2634 12.8117L19.7562 5.0434C20.4412 4.65295 21.2167 4.44755 22.006 4.44755C22.7952 4.44755 23.5708 4.65295 24.2558 5.0434L37.7485 12.8117C38.4322 13.2062 38.9999 13.7726 39.3947 14.4543C39.7895 15.1359 39.9976 15.9089 39.9983 16.6958V32.2324C39.9964 33.0191 39.7878 33.7916 39.3931 34.4731C38.9984 35.1545 38.4313 35.7211 37.7485 36.1166L27.4055 42.0922C26.0556 42.881 24.4958 44.0343 24.3338 44.4824C23.9259 45.6775 23.3978 46.3647 22.7619 46.6157C21.562 47.0938 20.614 46.7293 19.5641 46.2393H19.5162L4.36162 37.5268C3.60527 37.0905 2.97718 36.464 2.54025 35.71C2.10331 34.956 1.87276 34.1009 1.87175 33.2303V15.7577C1.87276 14.8871 2.10331 14.032 2.54025 13.278C2.97718 12.524 3.60527 11.8975 4.36162 11.4612L19.5162 2.74876C20.2734 2.31404 21.132 2.08521 22.006 2.08521C22.8799 2.08521 23.7386 2.31404 24.4958 2.74876L39.6505 11.4612C40.4068 11.8975 41.0347 12.524 41.4717 13.278C41.9086 14.032 42.1392 14.8871 42.1402 15.7577V33.1825C42.1392 34.0531 41.9086 34.9082 41.4717 35.6622C41.0347 36.4162 40.4068 37.0427 39.6505 37.479C34.9409 40.1143 27.2855 44.4645 26.6255 45.0143C26.4016 45.3294 26.2352 45.6814 26.1337 46.054C25.8965 47.0081 25.2962 47.8331 24.4598 48.3546C23.7364 48.7792 22.9117 49.0021 22.072 49Z" fill="#D65797"/>
<path d="M16.4087 32.107H19.4084C19.1684 31.8739 18.9284 31.6827 18.7244 31.4556C18.2914 30.9852 18.0572 30.3667 18.0704 29.7287C18.0704 27.936 18.0704 26.1433 18.0704 24.3506V24.016H25.5458C25.8278 24.016 25.9177 24.0757 25.9117 24.3685C25.9117 26.0895 25.9117 27.8105 25.9117 29.5315C25.9306 30.0043 25.8308 30.4743 25.6213 30.899C25.4117 31.3236 25.0991 31.6896 24.7118 31.9635L24.5678 32.089H27.5676L27.3996 31.8679C26.9605 31.3542 26.7089 30.7077 26.6857 30.0334C26.6857 28.0794 26.6857 26.1254 26.6857 24.1654C26.6815 24.1236 26.6815 24.0816 26.6857 24.0399H31.5631C31.5631 24.1176 31.5631 24.1893 31.5631 24.261C31.5631 26.1433 31.5631 28.0256 31.5631 29.9079C31.5738 30.3643 31.4793 30.8171 31.2869 31.2314C31.0945 31.6458 30.8094 32.0107 30.4533 32.2982C30.0303 32.6334 29.5061 32.8166 28.9655 32.8181C24.3339 32.8181 19.7062 32.8181 15.0827 32.8181C14.6099 32.8275 14.1438 32.7069 13.7353 32.4698C13.3268 32.2326 12.9917 31.8879 12.767 31.4735C12.4749 30.986 12.3234 30.4278 12.329 29.8601C12.329 28.0077 12.329 26.1553 12.329 24.2968C12.329 24.0578 12.413 24.004 12.641 24.004C14.0809 24.004 15.5247 24.004 16.9726 24.004C17.1286 24.004 17.2665 24.004 17.2665 24.2311C17.2665 26.1194 17.2665 28.0077 17.2665 29.902C17.2485 30.7804 17.0626 31.1748 16.4087 32.107Z" fill="#D65797"/>
<path d="M26.3017 19.2952V19.6537C26.3017 23.6992 26.3017 18.6498 26.3017 22.6953C26.3017 22.8985 26.3015 23.018 26.0196 23.018C23.3078 23.018 20.6202 23.018 17.8904 23.018C17.8045 23.0223 17.7183 23.0223 17.6323 23.018V22.6236C17.6323 19.1518 17.6323 24.7748 17.6323 21.303C17.6323 21.0639 17.6983 20.9683 17.9443 20.9205C20.6161 20.3947 23.2859 19.8609 25.9536 19.3191L26.3017 19.2952Z" fill="#D65797"/>
<path d="M26.3018 12.8356C26.3018 13.3734 26.3018 13.8992 26.3018 14.4251C26.3018 14.4848 26.1517 14.5685 26.0617 14.5864C24.9638 14.8135 23.8659 15.0286 22.768 15.2497L17.8365 16.2476H17.6565C17.6565 15.7158 17.6565 15.184 17.6565 14.6581C17.6565 14.6044 17.8006 14.5326 17.8906 14.5147L23.4581 13.3913L26.1458 12.8535C26.1972 12.8432 26.2494 12.8372 26.3018 12.8356Z" fill="#D65797"/>
<path d="M17.6384 19.5044C17.6384 18.9426 17.6384 18.4287 17.6384 17.9148C17.6384 17.8551 17.7645 17.7595 17.8425 17.7475C19.5263 17.4009 21.2161 17.0603 22.912 16.7257L26.1217 16.0863H26.2717V17.7953L17.6384 19.5044Z" fill="#D65797"/>
<path d="M26.2777 10.762C26.3437 11.3596 26.3497 11.3596 25.8218 11.4612L17.8725 13.0626H17.6384C17.6384 12.5308 17.6384 12.005 17.6384 11.4851C17.6384 11.4313 17.7344 11.3476 17.7944 11.3357C19.1743 11.1026 20.5183 10.6784 21.9521 10.7381C23.278 10.7919 24.6158 10.7381 25.9417 10.7381L26.2777 10.762Z" fill="#D65797"/>
<path d="M16.2104 33.4694H28.3533L22.9778 38.9669H21.538L16.2104 33.4694Z" fill="#D65797"/>
</g>
<defs>
<clipPath id="clip0">
<rect width="44" height="49" fill="white"/>
</clipPath>
</defs>
</svg>
