<svg width="108" height="120" viewBox="0 0 108 120" fill="none" xmlns="http://www.w3.org/2000/svg">
<g clip-path="url(#clip0)">
<path d="M53.8227 120C51.4424 119.966 49.1122 119.311 47.0636 118.098L6.58336 94.683C4.58267 93.5276 2.92106 91.8659 1.76549 89.8649C0.609925 87.8639 0.00108559 85.5939 0 83.283V36.4538C0.00108559 34.1429 0.609925 31.8729 1.76549 29.8719C2.92106 27.8709 4.58267 26.2092 6.58336 25.0537L47.0636 1.63912C49.0652 0.483145 51.3357 -0.125427 53.647 -0.125427C55.9582 -0.125427 58.2287 0.483145 60.2303 1.63912L100.711 25.0537C102.712 26.2092 104.373 27.8709 105.528 29.8719C106.684 31.8729 107.293 34.1429 107.294 36.4538V83.283C107.293 85.5939 106.684 87.8639 105.528 89.8649C104.373 91.8659 102.712 93.5276 100.711 94.683L69.681 112.61C69.3299 112.814 68.9122 112.87 68.5199 112.765C68.1275 112.661 67.7928 112.405 67.5891 112.054C67.3854 111.703 67.3295 111.285 67.4337 110.892C67.538 110.5 67.7941 110.165 68.1452 109.961L99.1894 92.0342C100.729 91.1434 102.007 89.8631 102.895 88.3219C103.784 86.7807 104.252 85.0329 104.251 83.2538V36.4245C104.241 34.6474 103.769 32.9036 102.882 31.3641C101.994 29.8247 100.722 28.5427 99.1894 27.644L58.7088 4.22936C57.166 3.35185 55.4217 2.89048 53.647 2.89048C51.8722 2.89048 50.1279 3.35185 48.5851 4.22936L8.10491 27.644C6.57228 28.5427 5.29959 29.8247 4.41212 31.3641C3.52465 32.9036 3.05298 34.6474 3.04309 36.4245V83.2538C3.04275 85.0329 3.51006 86.7807 4.39855 88.3219C5.28704 89.8631 6.56537 91.1434 8.10491 92.0342L48.5851 115.449C49.9856 116.368 51.6114 116.886 53.2855 116.945C54.9596 117.004 56.6178 116.603 58.0798 115.785C58.7823 115.334 59.3876 114.747 59.8599 114.058C60.3323 113.37 60.6623 112.594 60.8304 111.776C61.1903 110.476 61.8071 109.262 62.6444 108.205C63.8587 106.742 85.7886 94.3904 95.1662 89.1806C96.5407 88.3766 97.6809 87.2269 98.474 85.8458C99.267 84.4647 99.6849 82.9001 99.6865 81.3074V38.5903C99.6845 36.994 99.2649 35.426 98.4693 34.0423C97.6737 32.6585 96.5299 31.5071 95.1516 30.7025L58.1969 9.36595C56.8131 8.56847 55.244 8.14871 53.647 8.14871C52.0499 8.14871 50.4811 8.56847 49.0973 9.36595L12.1574 30.7025C10.7753 31.5041 9.62766 32.6545 8.82925 34.0386C8.03084 35.4228 7.60947 36.9923 7.60737 38.5903V81.2635C7.60908 82.8597 8.03031 84.4273 8.82889 85.8092C9.62747 87.1911 10.7755 88.3386 12.1574 89.1367L49.0387 110.444C51.1015 111.41 52.6082 111.907 54.3492 111.278C54.8758 111.073 55.7246 109.932 56.4561 107.868C57.407 105.117 63.4491 101.429 65.2339 100.361L90.4701 85.8001C91.6739 85.0998 92.673 84.0963 93.3686 82.8896C94.0641 81.6829 94.4319 80.315 94.4347 78.9221V40.8733C94.4319 39.4803 94.0641 38.1124 93.3686 36.9057C92.673 35.699 91.6739 34.6955 90.4701 33.9952L57.568 14.9708C56.3631 14.2732 54.9952 13.9059 53.603 13.9059C52.2108 13.9059 50.8434 14.2732 49.6384 14.9708L16.7363 33.9952C15.5325 34.6955 14.5331 35.699 13.8375 36.9057C13.1419 38.1124 12.7745 39.4803 12.7717 40.8733V78.9221C12.7745 80.315 13.1419 81.6829 13.8375 82.8896C14.5331 84.0963 15.5325 85.0998 16.7363 85.8001L46.1128 102.761L46.2589 102.849C47.5868 103.807 49.2286 104.225 50.8528 104.02C51.9793 103.727 52.8571 99.366 52.6815 95.0489C52.6653 94.8471 52.691 94.6441 52.7572 94.4528C52.8235 94.2616 52.9287 94.0861 53.0662 93.9375C53.2037 93.789 53.3707 93.6706 53.5562 93.5899C53.7418 93.5091 53.9421 93.4677 54.1445 93.4684C54.3462 93.4522 54.549 93.4781 54.7403 93.5443C54.9315 93.6106 55.1068 93.7158 55.2553 93.8533C55.4038 93.9909 55.5224 94.1577 55.6032 94.3434C55.6839 94.529 55.7253 94.7294 55.7246 94.9318C55.775 96.6669 55.6966 98.4034 55.4903 100.127C54.9783 104.195 53.7056 106.449 51.6136 106.99C50.3857 107.211 49.1261 107.181 47.9097 106.905C46.6933 106.628 45.5448 106.11 44.5327 105.381L15.2733 88.4489C13.6083 87.4805 12.2259 86.0928 11.2634 84.424C10.3009 82.7551 9.79184 80.8633 9.78718 78.9367V40.8879C9.7889 38.9607 10.2966 37.0677 11.2594 35.3984C12.2222 33.729 13.6063 32.3419 15.2733 31.3757L48.1755 12.3513C49.8459 11.3951 51.737 10.8921 53.6616 10.8921C55.5862 10.8921 57.4773 11.3951 59.1477 12.3513L92.0499 31.3757C93.7169 32.3419 95.1013 33.729 96.0641 35.3984C97.0269 37.0677 97.5343 38.9607 97.536 40.8879V78.9367C97.5314 80.8633 97.0227 82.7551 96.0602 84.424C95.0977 86.0928 93.7149 87.4805 92.0499 88.4489L66.8283 103.083C63.5366 105.015 59.7331 107.839 59.3381 108.937C58.3433 111.864 57.0557 113.546 55.505 114.161C52.579 115.332 50.2674 114.439 47.7072 113.239H47.5904L10.6358 91.9025C8.79146 90.834 7.25987 89.2997 6.1944 87.4531C5.12893 85.6066 4.56672 83.5126 4.56428 81.3806V38.5903C4.56672 36.4583 5.12893 34.3643 6.1944 32.5178C7.25987 30.6712 8.79146 29.137 10.6358 28.0684L47.5904 6.7318C49.4368 5.66716 51.5304 5.10676 53.6616 5.10676C55.7928 5.10676 57.8867 5.66716 59.7331 6.7318L96.6877 28.0684C98.5321 29.137 100.063 30.6712 101.129 32.5178C102.194 34.3643 102.756 36.4583 102.759 38.5903V81.2635C102.756 83.3955 102.194 85.4895 101.129 87.3361C100.063 89.1826 98.5321 90.7169 96.6877 91.7855C85.2034 98.2391 66.5357 108.893 64.9264 110.239C64.3803 111.011 63.9745 111.873 63.727 112.785C63.1486 115.122 61.685 117.142 59.6453 118.42C57.8813 119.459 55.8702 120.005 53.8227 120Z" fill="#D65797"/>
<path d="M40.0126 78.6292H47.3274C46.7422 78.0585 46.1569 77.5902 45.6594 77.0341C44.6037 75.8821 44.0324 74.3673 44.0647 72.8048C44.0647 68.4146 44.0647 64.0244 44.0647 59.6341V58.8146H62.2936C62.9812 58.8146 63.2004 58.9609 63.1858 59.678C63.1858 63.8927 63.1858 68.1073 63.1858 72.3219C63.2318 73.4798 62.9884 74.6309 62.4775 75.6709C61.9666 76.7109 61.2043 77.607 60.2598 78.278L59.9088 78.5853H67.2236L66.8139 78.0439C65.7432 76.7859 65.1297 75.2024 65.0731 73.5512C65.0731 68.7658 65.0731 63.9805 65.0731 59.1805C65.063 59.0783 65.063 58.9753 65.0731 58.8731H76.9668C76.9668 59.0634 76.9668 59.239 76.9668 59.4146C76.9668 64.0244 76.9668 68.6341 76.9668 73.2439C76.9928 74.3616 76.7624 75.4703 76.2932 76.4851C75.824 77.4998 75.1288 78.3935 74.2606 79.0975C73.229 79.9186 71.9506 80.3672 70.6324 80.3707C59.3383 80.3707 48.0537 80.3707 36.7791 80.3707C35.6263 80.3937 34.4897 80.0986 33.4935 79.5178C32.4974 78.9369 31.6803 78.0928 31.1323 77.078C30.4201 75.8841 30.0506 74.517 30.0643 73.1268C30.0643 68.5902 30.0643 64.0536 30.0643 59.5024C30.0643 58.9171 30.2692 58.7853 30.8251 58.7853C34.3362 58.7853 37.8571 58.7853 41.3877 58.7853C41.7681 58.7853 42.1045 58.7853 42.1045 59.3414C42.1045 63.9658 42.1045 68.5902 42.1045 73.2292C42.0606 75.3804 41.6072 76.3463 40.0126 78.6292Z" fill="#D65797"/>
<path d="M64.1368 47.2536V48.1317C64.1368 58.039 64.1368 45.6731 64.1368 55.5804C64.1368 56.078 64.1365 56.3707 63.4489 56.3707C56.8362 56.3707 50.2824 56.3707 43.6259 56.3707C43.4164 56.3812 43.2061 56.3812 42.9966 56.3707V55.4048C42.9966 46.9024 42.9966 60.6731 42.9966 52.1707C42.9966 51.5853 43.1575 51.3512 43.7574 51.2341C50.2724 49.9463 56.7828 48.639 63.2881 47.3122L64.1368 47.2536Z" fill="#D65797"/>
<path d="M64.137 31.4342C64.137 32.7513 64.137 34.0391 64.137 35.3269C64.137 35.4732 63.7711 35.6781 63.5516 35.722C60.8744 36.2781 58.1972 36.8049 55.5199 37.3464L43.4944 39.7903H43.0554C43.0554 38.4879 43.0554 37.1854 43.0554 35.8976C43.0554 35.7659 43.4067 35.5903 43.6262 35.5464L57.2026 32.7952L63.7566 31.4781C63.882 31.4529 64.0092 31.4382 64.137 31.4342Z" fill="#D65797"/>
<path d="M64.1368 31.4341C64.1368 32.7512 64.1368 34.039 64.1368 35.3268C64.1368 35.4732 63.7708 35.6781 63.5514 35.722C60.8741 36.2781 58.1969 36.8049 55.5197 37.3464L43.4941 39.7903H43.0552C43.0552 38.4878 43.0552 37.1854 43.0552 35.8976C43.0552 35.7659 43.4065 35.5902 43.6259 35.5463L57.2023 32.7951L63.7564 31.478C63.8817 31.4528 64.009 31.4382 64.1368 31.4341Z" fill="#D65797"/>
<path d="M43.0112 47.7658C43.0112 46.3902 43.0112 45.1317 43.0112 43.8731C43.0112 43.7268 43.3186 43.4926 43.5088 43.4634C47.6148 42.6146 51.7354 41.7805 55.8708 40.9609L63.6978 39.3951H64.0635V43.5804L43.0112 47.7658Z" fill="#D65797"/>
<path d="M64.0782 26.3561C64.2391 27.8195 64.2537 27.8196 62.9663 28.0683L43.582 31.9903H43.0112C43.0112 30.6878 43.0112 29.4 43.0112 28.1269C43.0112 27.9952 43.2453 27.7903 43.3916 27.761C46.7564 27.1903 50.0338 26.1513 53.5303 26.2976C56.7634 26.4293 60.0257 26.2976 63.2589 26.2976L64.0782 26.3561Z" fill="white"/>
<path d="M39.5293 81.9658H69.1398L56.0316 95.4292H52.5205L39.5293 81.9658Z" fill="#D65797"/>
</g>
<defs>
<clipPath id="clip0">
<rect width="107.294" height="120" fill="white"/>
</clipPath>
</defs>
</svg>
