<svg width="19" height="28" viewBox="0 0 19 28" fill="none" xmlns="http://www.w3.org/2000/svg">
<path d="M18.8571 19.0357C18.8571 18.942 18.8571 18.8482 18.817 18.7545C18.7232 18.4732 18.067 18.1786 17.7991 18.0446C17.0357 17.6161 16.2589 17.2009 15.5089 16.7589C15.1607 16.5446 14.7321 16.1429 14.317 16.1429C13.5 16.1429 12.308 18.567 11.5848 18.567C11.2232 18.567 10.7545 18.2321 10.433 18.0446C7.99554 16.692 6.30804 15.0045 4.95536 12.567C4.76786 12.2455 4.43304 11.7768 4.43304 11.4152C4.43304 10.692 6.85714 9.5 6.85714 8.68303C6.85714 8.26786 6.45536 7.83928 6.24107 7.49107C5.79911 6.74107 5.38393 5.96428 4.95536 5.20089C4.82143 4.93303 4.52679 4.27678 4.24554 4.18303C4.15179 4.14286 4.05804 4.14286 3.96429 4.14286C3.48214 4.14286 2.54464 4.35714 2.10268 4.55803C1.44643 4.83928 1.01786 5.58928 0.683036 6.19196C0.254464 6.98214 0 7.78571 0 8.68303C0 9.92857 0.508929 11.0536 0.924107 12.192C1.21875 13.0089 1.58036 13.7991 2.03571 14.5357C3.44196 16.8125 6.1875 19.558 8.46429 20.9643C9.20089 21.4196 9.99107 21.7812 10.808 22.0759C11.9464 22.4911 13.0714 23 14.317 23C15.2143 23 16.0179 22.7455 16.808 22.317C17.4107 21.9821 18.1607 21.5536 18.442 20.8973C18.6429 20.4554 18.8571 19.5179 18.8571 19.0357Z" fill="white"/>
</svg>
