<svg width="28" height="29" viewBox="0 0 28 29" fill="none" xmlns="http://www.w3.org/2000/svg">
<path d="M17.5893 15.9643C17.125 15.9643 16.2321 17.6964 15.6964 17.6964C15.5536 17.6964 15.4286 17.6429 15.3036 17.5714C14.3036 17.0714 13.4286 16.5536 12.6071 15.7679C11.9286 15.125 11.1786 14.1607 10.7857 13.3214C10.7321 13.2321 10.6964 13.1429 10.6964 13.0536C10.6964 12.6429 11.9286 11.875 11.9286 11.1964C11.9286 11.0179 11.0179 8.58928 10.8929 8.28571C10.7143 7.82143 10.625 7.67857 10.1429 7.67857C9.91072 7.67857 9.69643 7.625 9.48214 7.625C9.10714 7.625 8.82143 7.76786 8.55357 8.01786C7.69643 8.82143 7.26786 9.66071 7.23214 10.8393V10.9821C7.21429 12.2143 7.82143 13.4464 8.5 14.4464C10.0357 16.7143 11.625 18.6964 14.1786 19.8571C14.9464 20.2143 16.7143 20.9643 17.5714 20.9643C18.5893 20.9643 20.25 20.3214 20.6607 19.3214C20.8214 18.9107 20.9643 18.4107 20.9643 17.9643C20.9643 17.8929 20.9643 17.7857 20.9286 17.6964C20.8036 17.4821 17.8929 15.9643 17.5893 15.9643ZM13.9643 25.4286C11.7857 25.4286 9.625 24.7679 7.80357 23.5714L3.48214 24.9464L4.89286 20.7857C3.5 18.875 2.75 16.5714 2.75 14.2143C2.75 8.03571 7.78571 3 13.9643 3C20.1429 3 25.1786 8.03571 25.1786 14.2143C25.1786 20.3929 20.1429 25.4286 13.9643 25.4286ZM13.9643 0.749998C6.53571 0.749998 0.5 6.78571 0.5 14.2143C0.5 16.6607 1.16071 19.0714 2.42857 21.1607L0 28.3929L7.44643 26C9.44643 27.1071 11.6964 27.6786 13.9643 27.6786C21.3929 27.6786 27.4286 21.6429 27.4286 14.2143C27.4286 6.78571 21.3929 0.749998 13.9643 0.749998Z" fill="white"/>
</svg>
