<svg width="14" height="28" viewBox="0 0 14 28" fill="none" xmlns="http://www.w3.org/2000/svg">
<path d="M10.2857 11C10.2857 12.8884 8.74554 14.4286 6.85714 14.4286C4.96875 14.4286 3.42857 12.8884 3.42857 11C3.42857 9.11161 4.96875 7.57143 6.85714 7.57143C8.74554 7.57143 10.2857 9.11161 10.2857 11ZM13.7143 11C13.7143 7.20982 10.6473 4.14286 6.85714 4.14286C3.06696 4.14286 0 7.20982 0 11C0 11.817 0.09375 12.6607 0.441964 13.3973L5.33036 23.7634C5.59821 24.3527 6.21429 24.7143 6.85714 24.7143C7.5 24.7143 8.11607 24.3527 8.39732 23.7634L13.2723 13.3973C13.6205 12.6607 13.7143 11.817 13.7143 11Z" fill="#3C4CA8"/>
</svg>
