<svg width="18" height="21" viewBox="0 0 18 21" fill="none" xmlns="http://www.w3.org/2000/svg">
<path d="M18 8.70312C17.6987 9.0346 17.3571 9.32589 16.9955 9.57701C15.3181 10.7121 13.6306 11.8571 11.9933 13.0424C11.1496 13.6652 10.1049 14.4286 9.01005 14.4286H9H8.98996C7.89509 14.4286 6.85045 13.6652 6.0067 13.0424C4.36942 11.8471 2.68192 10.7121 1.01451 9.57701C0.642857 9.32589 0.301339 9.0346 0 8.70312V16.6786C0 17.5625 0.723214 18.2857 1.60714 18.2857H16.3929C17.2768 18.2857 18 17.5625 18 16.6786V8.70312ZM18 5.75C18 4.86607 17.2667 4.14286 16.3929 4.14286H1.60714C0.532366 4.14286 0 4.98661 0 5.97098C0 6.88504 1.01451 8.02009 1.72768 8.50223C3.2846 9.58705 4.86161 10.6719 6.41853 11.7667C7.07143 12.2188 8.17634 13.1429 8.98996 13.1429H9H9.01005C9.82366 13.1429 10.9286 12.2188 11.5815 11.7667C13.1384 10.6719 14.7154 9.58705 16.2824 8.50223C17.1663 7.88951 18 6.875 18 5.75Z" fill="#3C4CA8"/>
</svg>
