<svg width="16" height="17" viewBox="0 0 16 17" fill="none" xmlns="http://www.w3.org/2000/svg">
<path d="M9.89397 9.35491C9.63281 9.35491 9.13058 10.3292 8.82924 10.3292C8.74888 10.3292 8.67857 10.2991 8.60826 10.2589C8.04576 9.97768 7.55357 9.68638 7.09152 9.24442C6.70982 8.88281 6.28795 8.3404 6.06696 7.8683C6.03683 7.81808 6.01674 7.76786 6.01674 7.71763C6.01674 7.48661 6.70982 7.05469 6.70982 6.67299C6.70982 6.57254 6.19754 5.20647 6.12723 5.03571C6.02679 4.77455 5.97656 4.6942 5.70536 4.6942C5.57478 4.6942 5.45424 4.66406 5.33371 4.66406C5.12277 4.66406 4.96205 4.74442 4.81138 4.88504C4.32924 5.33705 4.08817 5.80915 4.06808 6.4721V6.55246C4.05804 7.24554 4.39955 7.93862 4.78125 8.50112C5.64509 9.77679 6.53906 10.8917 7.97545 11.5446C8.40737 11.7455 9.40179 12.1674 9.88393 12.1674C10.4565 12.1674 11.3906 11.8058 11.6217 11.2433C11.7121 11.0123 11.7924 10.731 11.7924 10.4799C11.7924 10.4397 11.7924 10.3795 11.7723 10.3292C11.702 10.2087 10.0647 9.35491 9.89397 9.35491ZM7.85491 14.6786C6.62946 14.6786 5.41406 14.3069 4.38951 13.6339L1.95871 14.4074L2.75223 12.067C1.96875 10.9922 1.54688 9.69643 1.54688 8.37054C1.54688 4.89509 4.37946 2.0625 7.85491 2.0625C11.3304 2.0625 14.1629 4.89509 14.1629 8.37054C14.1629 11.846 11.3304 14.6786 7.85491 14.6786ZM7.85491 0.796874C3.67634 0.796874 0.28125 4.19196 0.28125 8.37054C0.28125 9.74665 0.652902 11.1027 1.36607 12.2779L0 16.346L4.18862 15C5.31362 15.6228 6.57924 15.9442 7.85491 15.9442C12.0335 15.9442 15.4286 12.5491 15.4286 8.37054C15.4286 4.19196 12.0335 0.796874 7.85491 0.796874Z" fill="white"/>
</svg>
